<svg height="512pt" viewBox="0 -21 512 512" width="512pt" xmlns="http://www.w3.org/2000/svg"><path d="m256 469.707031c-24.8125 0-45-20.1875-45-45v-28c0-8.285156 6.714844-15 15-15s15 6.714844 15 15v28c0 8.269531 6.730469 15 15 15s15-6.730469 15-15v-28c0-8.285156 6.714844-15 15-15s15 6.714844 15 15v28c0 24.8125-20.1875 45-45 45zm0 0" fill="#4a696f"/><path d="m240.996094 319.707031c-3.058594 0-6.132813-.933593-8.765625-2.832031-5.96875-4.300781-7.9375-12.296875-4.648438-18.878906l24.078125-48.15625-78.980468-52.652344c-3.738282-2.492188-6.164063-6.53125-6.605469-11.003906-.445313-4.472656 1.140625-8.90625 4.320312-12.085938l90-90c5.199219-5.199218 13.410157-5.863281 19.375-1.5625 5.96875 4.304688 7.9375 12.296875 4.644531 18.878906l-24.074218 48.15625 78.980468 52.652344c3.738282 2.496094 6.164063 6.53125 6.605469 11.003906.441407 4.472657-1.144531 8.90625-4.320312 12.085938l-90 90c-2.902344 2.90625-6.746094 4.394531-10.609375 4.394531zm-36.449219-137.332031 74.773437 49.851562c2.707032 1.804688 4.65625 4.359376 5.726563 7.21875l22.40625-22.40625-74.773437-49.851562c-2.707032-1.804688-4.65625-4.359375-5.726563-7.21875zm0 0" fill="#fdbf00"/><g fill="#faecd8"><path d="m497 199.707031h-31c-8.285156 0-15-6.714843-15-15 0-8.285156 6.714844-15 15-15h31c8.285156 0 15 6.714844 15 15 0 8.285157-6.714844 15-15 15zm0 0"/><path d="m46 199.707031h-31c-8.285156 0-15-6.714843-15-15 0-8.285156 6.714844-15 15-15h31c8.285156 0 15 6.714844 15 15 0 8.285157-6.714844 15-15 15zm0 0"/><path d="m404.492188 51.214844c-3.839844 0-7.679688-1.464844-10.605469-4.394532-5.859375-5.859374-5.859375-15.355468 0-21.214843l21.214843-21.210938c5.855469-5.859375 15.355469-5.859375 21.210938 0 5.859375 5.855469 5.859375 15.355469 0 21.210938l-21.214844 21.214843c-2.925781 2.929688-6.769531 4.394532-10.605468 4.394532zm0 0"/><path d="m86.296875 369.410156c-3.839844 0-7.679687-1.460937-10.609375-4.390625-5.855469-5.859375-5.855469-15.355469 0-21.214843l21.214844-21.210938c5.855468-5.859375 15.355468-5.859375 21.210937 0 5.859375 5.855469 5.859375 15.355469 0 21.210938l-21.210937 21.214843c-2.929688 2.929688-6.769532 4.390625-10.605469 4.390625zm0 0"/><path d="m107.507812 51.214844c-3.839843 0-7.679687-1.464844-10.605468-4.394532l-21.214844-21.210937c-5.859375-5.859375-5.859375-15.355469 0-21.214844 5.859375-5.859375 15.355469-5.859375 21.214844 0l21.210937 21.214844c5.859375 5.855469 5.859375 15.351563 0 21.210937-2.925781 2.929688-6.765625 4.394532-10.605469 4.394532zm0 0"/><path d="m425.707031 369.410156c-3.839843 0-7.679687-1.460937-10.605469-4.390625l-21.214843-21.214843c-5.859375-5.855469-5.859375-15.355469 0-21.210938 5.855469-5.859375 15.355469-5.859375 21.210937 0l21.214844 21.210938c5.859375 5.859374 5.859375 15.355468 0 21.214843-2.929688 2.929688-6.765625 4.390625-10.605469 4.390625zm0 0"/></g><path d="m286 409.707031h-60c-24.8125 0-45-20.1875-45-45v-3.882812c0-17.117188-7.386719-32.523438-19.757812-41.214844-52.792969-37.078125-78.75-99.925781-67.738282-164.011719 11.261719-65.546875 62.332032-118.667968 127.085938-132.191406 49.832031-10.410156 100.644531 1.691406 139.410156 33.195312 38.765625 31.507813 61 78.199219 61 128.105469 0 26.445313-6.085938 51.707031-18.09375 75.082031-11.429688 22.257813-28.117188 41.964844-48.246094 56.996094-15.039062 11.226563-23.660156 26.976563-23.660156 43.210938v4.710937c0 24.8125-20.1875 45-45 45zm-30.324219-359.945312c-9.601562 0-19.292969.992187-28.953125 3.011719-52.804687 11.027343-94.457031 54.390624-103.652344 107.902343-9.023437 52.546875 12.207032 104.039063 55.414063 134.382813 20.359375 14.300781 32.515625 38.886718 32.515625 65.765625v3.882812c0 8.269531 6.730469 15 15 15h60c8.269531 0 15-6.730469 15-15v-4.710937c0-25.792969 13.015625-50.304688 35.710938-67.25 34.503906-25.757813 54.289062-65.136719 54.289062-108.039063 0-40.832031-18.195312-79.039062-49.921875-104.824219-24.242187-19.703124-54.304687-30.121093-85.402344-30.121093zm0 0" fill="#ffe470"/></svg>