<?xml version="1.0" encoding="iso-8859-1"?>
<!-- Generator: Adobe Illustrator 19.0.0, SVG Export Plug-In . SVG Version: 6.00 Build 0)  -->
<svg version="1.1" id="Capa_1" xmlns="http://www.w3.org/2000/svg" xmlns:xlink="http://www.w3.org/1999/xlink" x="0px" y="0px"
	 viewBox="0 0 364.16 364.16" style="enable-background:new 0 0 364.16 364.16;" xml:space="preserve">
<g>
	<g>
		<path d="M308.16,63.6H56c-41.28,0-56,28.88-56,56v124.96c0,27.04,14.72,56,56,56h252.16c27.04,0,56-14.72,56-56V119.6
			C364.08,78.08,335.2,63.6,308.16,63.6z M56,75.52l252.16,0.16c9.809-0.084,19.428,2.697,27.68,8l-153.76,99.6l-36.4-24
			c-0.643-0.586-1.408-1.023-2.24-1.28L28.16,83.52C36.334,77.92,46.1,75.113,56,75.52z M12.08,244.56h0.08V119.6
			c0.027-9.643,2.802-19.078,8-27.2l112,72.64l-107.76,112C16.321,268.169,11.916,256.558,12.08,244.56z M307.44,288.4l-251.36,0.08
			c-7.604,0.192-15.152-1.34-22.08-4.48l108.08-112.32l36.72,24h0.4c0.795,0.401,1.67,0.619,2.56,0.64
			c0.89-0.021,1.765-0.239,2.56-0.64h0.4l36.96-24l108,112C322.69,286.828,315.106,288.438,307.44,288.4z M340.4,276.56l-107.76-112
			l112-72.56c5.268,8.093,7.869,17.633,7.44,27.28v125.28C352.792,256.385,348.562,267.974,340.4,276.56z"/>
	</g>
</g>
<g>
</g>
<g>
</g>
<g>
</g>
<g>
</g>
<g>
</g>
<g>
</g>
<g>
</g>
<g>
</g>
<g>
</g>
<g>
</g>
<g>
</g>
<g>
</g>
<g>
</g>
<g>
</g>
<g>
</g>
</svg>
